# xmcd
#
# Track frame offsets:
# 150
# 8310
# 20344
# 28758
# 38236
# 46881
# 59062
# 72880
# 84190
# 99749
# 119153
# 129315
# 139664
# 149957
# 163921
# 177305
# 186281
# 196177
# 211617
# 220063
# 236096
# 248129
# 255155
# 265734
# 279447
# 287962
# 296255
# 307051
#
# Disc length: 4197 seconds
#
#
# Revision: 0
# Processed by: cddbd v1.5.2PL0 Copyright (c) Steve Scherf et al.
# Submitted via: FreeRIP 2.943 
#
DISCID=a110631c
DTITLE=the vivian girls experience - awesome celebrity couple-the kitten lemonade stand years
DYEAR=2007
DGENRE=Merengue
TTITLE0=run, run, vivian
TTITLE1=animal after school chorus
TTITLE2=kitten lemonade stand
TTITLE3=a song written by a pony
TTITLE4=hey, hey, vivian
TTITLE5=numbers song
TTITLE6=student nurse at swale
TTITLE7=strawberry garden
TTITLE8=squirrelumentary
TTITLE9=smallest pony in the world
TTITLE10=rebel girl (a bikini kill cover)
TTITLE11=teenage art class
TTITLE12=you must make and glue tiles
TTITLE13=toynbee idea in move 2001 resurrect dead on planet jupiter
TTITLE14=vivian march
TTITLE15=no smoking under no co(n)ditions
TTITLE16=seventeen running virgins
TTITLE17=a myth is a female moth (w- northern liberties)
TTITLE18=animal flea market
TTITLE19=bad news bats
TTITLE20=megan and jessica
TTITLE21=ghosts in love
TTITLE22=help us build the honeycomb
TTITLE23=pigeon time
TTITLE24=we've got the power
TTITLE25=who is the cutest
TTITLE26=roverine dance party
TTITLE27=phalantenburg
EXTD=this cd features 28 songs by enid crow and justin duerr
EXTT0=
EXTT1=
EXTT2=
EXTT3=
EXTT4=
EXTT5=
EXTT6=
EXTT7=
EXTT8=
EXTT9=
EXTT10=
EXTT11=
EXTT12=
EXTT13=
EXTT14=
EXTT15=
EXTT16=
EXTT17=
EXTT18=
EXTT19=
EXTT20=
EXTT21=
EXTT22=
EXTT23=
EXTT24=
EXTT25=
EXTT26=
EXTT27=
PLAYORDER=
